<svg width="51" height="45" viewBox="0 0 51 45" fill="none" xmlns="http://www.w3.org/2000/svg" class="icons-okta" >
<path d="M10.5175 23.2138H3.52591C2.99612 23.2138 2.48802 23.0001 2.1134 22.6198C1.73878 22.2396 1.52832 21.7238 1.52832 21.186V19.1582C1.52832 18.6204 1.73878 18.1047 2.1134 17.7244C2.48802 17.3441 2.99612 17.1305 3.52591 17.1305H27.497C28.0268 17.1305 28.5349 17.3441 28.9095 17.7244C29.2841 18.1047 29.4946 18.6204 29.4946 19.1582V21.186C29.4946 21.7238 29.2841 22.2396 28.9095 22.6198C28.5349 23.0001 28.0268 23.2138 27.497 23.2138V27.2693C28.0268 27.2693 28.5349 27.4829 28.9095 27.8632C29.2841 28.2435 29.4946 28.7592 29.4946 29.297V31.3248C29.4946 31.8626 29.2841 32.3783 28.9095 32.7586C28.5349 33.1389 28.0268 33.3525 27.497 33.3525V37.4081C28.0268 37.4081 28.5349 37.6217 28.9095 38.002C29.2841 38.3822 29.4946 38.898 29.4946 39.4358V41.4636C29.4946 42.0014 29.2841 42.5171 28.9095 42.8974C28.5349 43.2777 28.0268 43.4913 27.497 43.4913H3.52591C2.99612 43.4913 2.48802 43.2777 2.1134 42.8974C1.73878 42.5171 1.52832 42.0014 1.52832 41.4636V39.4358C1.52832 38.898 1.73878 38.3822 2.1134 38.002C2.48802 37.6217 2.99612 37.4081 3.52591 37.4081V33.3525C2.99612 33.3525 2.48802 33.1389 2.1134 32.7586C1.73878 32.3783 1.52832 31.8626 1.52832 31.3248V29.297C1.52832 28.7592 1.73878 28.2435 2.1134 27.8632C2.48802 27.4829 2.99612 27.2693 3.52591 27.2693V23.2138" stroke="#FF6B81" stroke-width="2" stroke-linecap="round" stroke-linejoin="round"/>
<path d="M27.497 27.2693H3.52588" stroke="#FF6B81" stroke-width="2" stroke-linecap="round" stroke-linejoin="round"/>
<path d="M3.52588 37.4081H27.497" stroke="#FF6B81" stroke-width="2" stroke-linecap="round" stroke-linejoin="round"/>
<path d="M27.4969 33.3525H20.5054" stroke="#FF6B81" stroke-width="2" stroke-linecap="round" stroke-linejoin="round"/>
<path d="M27.497 23.2137H16.5103" stroke="#FF6B81" stroke-width="2" stroke-linecap="round" stroke-linejoin="round"/>
<path d="M13.5138 33.3525H3.52588" stroke="#FF6B81" stroke-width="2" stroke-linecap="round" stroke-linejoin="round"/>
<path d="M36.4862 43.4913H46.4741C47.2688 43.4913 48.0309 43.1709 48.5929 42.6005C49.1548 42.03 49.4705 41.2564 49.4705 40.4497V17.7185C49.4685 17.2149 49.3434 16.7197 49.1063 16.2773C48.8692 15.8349 48.5276 15.4592 48.1121 15.1838L28.1362 2.00342C27.6491 1.6806 27.0799 1.5087 26.4982 1.5087C25.9165 1.5087 25.3473 1.6806 24.8602 2.00342L9.51868 12.1422" stroke="#FF6B81" stroke-width="2" stroke-linecap="round" stroke-linejoin="round"/>
</svg>
