<svg width="24" height="51" viewBox="0 0 24 51" fill="none" xmlns="http://www.w3.org/2000/svg">
<path d="M14.9439 21.3391L14.6597 20.3803C14.2351 20.5061 13.9439 20.8962 13.9439 21.3391H14.9439ZM9.05608 21.3391H10.0561C10.0561 20.8962 9.76482 20.5061 9.34023 20.3803L9.05608 21.3391ZM9.05608 49.9224H8.05608C8.05608 50.4747 8.5038 50.9224 9.05608 50.9224V49.9224ZM14.9439 49.9224V50.9224C15.4962 50.9224 15.9439 50.4747 15.9439 49.9224H14.9439ZM14.9439 41.9791V40.9791C14.3916 40.9791 13.9439 41.4268 13.9439 41.9791H14.9439ZM22.3433 41.9791V42.9791C22.8956 42.9791 23.3433 42.5314 23.3433 41.9791H22.3433ZM22.3433 36.0913H23.3433C23.3433 35.539 22.8956 35.0913 22.3433 35.0913V36.0913ZM14.9439 36.0913H13.9439C13.9439 36.6436 14.3916 37.0913 14.9439 37.0913V36.0913ZM14.9439 32.6265L14.9439 31.6265C14.6787 31.6265 14.4243 31.7318 14.2368 31.9194C14.0492 32.1069 13.9439 32.3612 13.9439 32.6265H14.9439ZM22.3433 32.6265L22.3433 33.6265C22.6085 33.6265 22.8629 33.5211 23.0504 33.3336C23.2379 33.146 23.3433 32.8917 23.3433 32.6265H22.3433ZM22.3433 26.7387H23.3433C23.3433 26.1864 22.8956 25.7387 22.3433 25.7387V26.7387ZM14.9439 26.7387H13.9439C13.9439 27.2909 14.3916 27.7387 14.9439 27.7387V26.7387ZM21.3432 11.4208C21.3432 15.6556 18.5251 19.2348 14.6597 20.3803L15.228 22.2979C19.9193 20.9076 23.3432 16.5654 23.3432 11.4208H21.3432ZM12 2.07761C17.1601 2.07761 21.3432 6.26071 21.3432 11.4208H23.3432C23.3432 5.15614 18.2647 0.0776062 12 0.0776062V2.07761ZM2.6568 11.4208C2.6568 6.26071 6.8399 2.07761 12 2.07761V0.0776062C5.73533 0.0776062 0.656799 5.15614 0.656799 11.4208H2.6568ZM9.34023 20.3803C5.47491 19.2347 2.6568 15.6556 2.6568 11.4208H0.656799C0.656799 16.5653 4.08073 20.9075 8.77193 22.2978L9.34023 20.3803ZM10.0561 49.9224V21.3391H8.05608V49.9224H10.0561ZM14.9439 48.9224H9.05608V50.9224H14.9439V48.9224ZM13.9439 41.9791V49.9224H15.9439V41.9791H13.9439ZM22.3433 40.9791H14.9439V42.9791H22.3433V40.9791ZM21.3433 36.0913V41.9791H23.3433V36.0913H21.3433ZM14.9439 37.0913H22.3433V35.0913H14.9439V37.0913ZM13.9439 32.6265V36.0913H15.9439V32.6265H13.9439ZM22.3433 31.6265L14.9439 31.6265L14.9439 33.6265L22.3433 33.6265L22.3433 31.6265ZM21.3433 26.7387V32.6265H23.3433V26.7387H21.3433ZM14.9439 27.7387H22.3433V25.7387H14.9439V27.7387ZM13.9439 21.3391V26.7387H15.9439V21.3391H13.9439Z" fill="#FF6B81"/>
<circle cx="12" cy="11.4206" r="3.82834" stroke="#FF6B81" stroke-width="2" stroke-linecap="round"/>
</svg>
