<svg width="39" height="51" viewBox="0 0 39 51" fill="none" xmlns="http://www.w3.org/2000/svg">
<path d="M21.5983 34.0131C22.6636 33.3719 23.4025 32.2363 23.4025 30.899C23.4025 28.8075 21.6149 27.217 19.5452 27.217C17.4753 27.217 15.6863 28.807 15.6863 30.899C15.6863 32.2368 16.4258 33.3728 17.4926 34.0138L16.9526 37.5947C16.9092 37.8827 16.9934 38.1753 17.1834 38.3961C17.3734 38.6169 17.6502 38.7438 17.9414 38.7438H21.1491C21.4403 38.7438 21.717 38.6169 21.907 38.3962C22.097 38.1754 22.1813 37.8828 22.1379 37.5949L21.5983 34.0131Z" stroke="#FF6B81" stroke-width="2" stroke-linecap="round" stroke-linejoin="round"/>
<path d="M6.67871 18.1412V12.8072C6.67871 6.51635 11.8264 1.37069 18.1172 1.37069H20.8829C27.1737 1.37069 32.3214 6.51635 32.3214 12.8072V18.1412" stroke="#FF6B81" stroke-width="2" stroke-linecap="round" stroke-linejoin="round"/>
<path fill-rule="evenodd" clip-rule="evenodd" d="M3.78544 18.141H35.2134C36.6889 18.141 37.8945 19.3456 37.8945 20.8201V46.7176C37.8945 48.319 36.5831 49.6293 34.9817 49.6293H4.01609C2.41669 49.6293 1.10535 48.319 1.10535 46.7176V20.8201C1.10535 19.3456 2.31094 18.141 3.78544 18.141Z" stroke="#FF6B81" stroke-width="2" stroke-linecap="round" stroke-linejoin="round"/>
</svg>
