<svg width="51" height="43" viewBox="0 0 51 43" fill="none" xmlns="http://www.w3.org/2000/svg">
<path d="M44.7638 19.4574C44.7638 21.936 42.7962 23.9136 40.4078 23.9136C38.0194 23.9136 36.0518 21.936 36.0518 19.4574C36.0518 16.9788 38.0194 15.0012 40.4078 15.0012C42.7962 15.0012 44.7638 16.9788 44.7638 19.4574Z" stroke="#FF6B81" stroke-width="2"/>
<path d="M42.9531 12.3864C41.9653 12.0958 42.0224 11.3995 41.889 10.6831C41.7563 9.96743 41.1102 9.90918 41.1102 9.90918H40.4069H39.7037C39.7037 9.90918 39.0576 9.96743 38.9249 10.6831C38.7921 11.3988 38.8486 12.0958 37.8608 12.3864L37.2991 12.6236C36.3991 13.1298 35.956 12.5965 35.3644 12.186C34.7727 11.7754 34.2765 12.1998 34.2765 12.1998L33.7795 12.7061L33.2825 13.2124C33.2825 13.2124 32.8659 13.7186 33.2689 14.3206C33.6719 14.9226 34.1961 15.3741 33.6985 16.2916L33.4656 16.8637C33.1804 17.87 32.4969 17.8117 31.7936 17.9477C31.0904 18.0836 31.0345 18.7411 31.0345 18.7411V19.4575V20.1738C31.0345 20.1738 31.0917 20.832 31.7943 20.9672C32.4976 21.1025 33.1811 21.0449 33.4663 22.0512L33.6991 22.6233C34.1961 23.5402 33.6726 23.9916 33.2696 24.5943C32.8665 25.1963 33.2832 25.7025 33.2832 25.7025L33.7802 26.2088L34.2771 26.7151C34.2771 26.7151 34.7741 27.1395 35.365 26.7289C35.956 26.3184 36.3991 25.7844 37.2998 26.2913L37.8615 26.5285C38.8493 26.8191 38.7921 27.5154 38.9255 28.2318C39.059 28.9482 39.7044 29.0057 39.7044 29.0057H40.4076H41.1109C41.1109 29.0057 41.7569 28.9475 41.8897 28.2318C42.0224 27.5154 41.9659 26.8191 42.9538 26.5285L43.5154 26.2913C44.4154 25.7851 44.8586 26.3184 45.4502 26.7289C46.0411 27.1395 46.5381 26.7151 46.5381 26.7151L47.0351 26.2088L47.5321 25.7025C47.5321 25.7025 47.9487 25.1963 47.5457 24.5943C47.1426 23.9923 46.6184 23.5409 47.1161 22.6233L47.3489 22.0512C47.6342 21.0449 48.3177 21.1032 49.0209 20.9672C49.7242 20.832 49.7807 20.1738 49.7807 20.1738V19.4575V18.7411C49.7807 18.7411 49.7235 18.0829 49.0209 17.9477C48.3184 17.8124 47.6342 17.87 47.3489 16.8637L47.1161 16.2916C46.6191 15.3747 47.1426 14.9233 47.5457 14.3206C47.9487 13.7179 47.5321 13.2124 47.5321 13.2124L47.0351 12.7061L46.5381 12.1998C46.5381 12.1998 46.0411 11.7754 45.4502 12.186C44.8593 12.5965 44.4161 13.1305 43.5154 12.6236L42.9531 12.3864Z" stroke="#FF6B81" stroke-width="2" stroke-miterlimit="10"/>
<path d="M27.0274 40.0464L24.4091 40.4581C18.8596 41.3473 13.1783 41.3473 7.62885 40.4581L5.01054 40.0464C2.57338 39.6512 1.04191 37.3128 1.75001 35.0568L3.24854 30.3306C4.53299 26.2632 9.16031 24.073 13.3265 25.5716C15.0721 26.1973 16.9823 26.1973 18.7278 25.5716C22.8941 24.073 27.5214 26.2632 28.8058 30.3306L30.3044 35.0568C30.996 37.3128 29.4645 39.6676 27.0274 40.0464Z" stroke="#FF6B81" stroke-width="2" stroke-miterlimit="10" stroke-linecap="round"/>
<path d="M15.9944 19.7915C20.9419 19.7915 24.9526 15.7808 24.9526 10.8333C24.9526 5.88582 20.9419 1.87508 15.9944 1.87508C11.0469 1.87508 7.03613 5.88582 7.03613 10.8333C7.03613 15.7808 11.0469 19.7915 15.9944 19.7915Z" stroke="#FF6B81" stroke-width="2" stroke-miterlimit="10" stroke-linecap="round"/>
</svg>
