<svg width="52" height="39" viewBox="0 0 52 39" fill="none" xmlns="http://www.w3.org/2000/svg">
<path d="M28.086 1.6861H3.399C2.59224 1.6861 1.93823 2.3401 1.93823 3.14686V9.66919C1.93823 10.476 2.59224 11.13 3.399 11.13H28.086C28.8927 11.13 29.5467 10.476 29.5467 9.66919V3.14686C29.5467 2.3401 28.8927 1.6861 28.086 1.6861Z" stroke="#FF6B81" stroke-width="2" stroke-linecap="round" stroke-linejoin="round"/>
<path d="M6.46656 8.62476C7.63636 8.62476 8.58468 7.64374 8.58468 6.43361C8.58468 5.22347 7.63636 4.24245 6.46656 4.24245C5.29676 4.24245 4.34845 5.22347 4.34845 6.43361C4.34845 7.64374 5.29676 8.62476 6.46656 8.62476Z" stroke="#FF6B81" stroke-width="2" stroke-linecap="round" stroke-linejoin="round"/>
<path d="M28.086 14.8109H3.399C2.59224 14.8109 1.93823 15.4649 1.93823 16.2716V22.794C1.93823 23.6007 2.59224 24.2547 3.399 24.2547H28.086C28.8927 24.2547 29.5467 23.6007 29.5467 22.794V16.2716C29.5467 15.4649 28.8927 14.8109 28.086 14.8109Z" stroke="#FF6B81" stroke-width="2" stroke-linecap="round" stroke-linejoin="round"/>
<path d="M6.46656 21.6764C7.63636 21.6764 8.58468 20.6954 8.58468 19.4853C8.58468 18.2752 7.63636 17.2941 6.46656 17.2941C5.29676 17.2941 4.34845 18.2752 4.34845 19.4853C4.34845 20.6954 5.29676 21.6764 6.46656 21.6764Z" stroke="#FF6B81" stroke-width="2" stroke-linecap="round" stroke-linejoin="round"/>
<path d="M13.0801 8.03398C13.9639 8.03398 14.6805 7.31746 14.6805 6.43359C14.6805 5.54972 13.9639 4.8332 13.0801 4.8332C12.1962 4.8332 11.4797 5.54972 11.4797 6.43359C11.4797 7.31746 12.1962 8.03398 13.0801 8.03398Z" stroke="#FF6B81" stroke-width="2" stroke-linecap="round" stroke-linejoin="round"/>
<path d="M18.9898 8.03398C19.8737 8.03398 20.5902 7.31746 20.5902 6.43359C20.5902 5.54972 19.8737 4.8332 18.9898 4.8332C18.1059 4.8332 17.3894 5.54972 17.3894 6.43359C17.3894 7.31746 18.1059 8.03398 18.9898 8.03398Z" stroke="#FF6B81" stroke-width="2" stroke-linecap="round" stroke-linejoin="round"/>
<path d="M24.8995 8.03398C25.7834 8.03398 26.4999 7.31746 26.4999 6.43359C26.4999 5.54972 25.7834 4.8332 24.8995 4.8332C24.0157 4.8332 23.2991 5.54972 23.2991 6.43359C23.2991 7.31746 24.0157 8.03398 24.8995 8.03398Z" stroke="#FF6B81" stroke-width="2" stroke-linecap="round" stroke-linejoin="round"/>
<path d="M13.0801 21.0857C13.9639 21.0857 14.6805 20.3692 14.6805 19.4853C14.6805 18.6014 13.9639 17.8849 13.0801 17.8849C12.1962 17.8849 11.4797 18.6014 11.4797 19.4853C11.4797 20.3692 12.1962 21.0857 13.0801 21.0857Z" stroke="#FF6B81" stroke-width="2" stroke-linecap="round" stroke-linejoin="round"/>
<path d="M18.9898 21.0857C19.8737 21.0857 20.5902 20.3692 20.5902 19.4853C20.5902 18.6014 19.8737 17.8849 18.9898 17.8849C18.1059 17.8849 17.3894 18.6014 17.3894 19.4853C17.3894 20.3692 18.1059 21.0857 18.9898 21.0857Z" stroke="#FF6B81" stroke-width="2" stroke-linecap="round" stroke-linejoin="round"/>
<path d="M24.8995 21.0857C25.7834 21.0857 26.4999 20.3692 26.4999 19.4853C26.4999 18.6014 25.7834 17.8849 24.8995 17.8849C24.0157 17.8849 23.2991 18.6014 23.2991 19.4853C23.2991 20.3692 24.0157 21.0857 24.8995 21.0857Z" stroke="#FF6B81" stroke-width="2" stroke-linecap="round" stroke-linejoin="round"/>
<path d="M13.0801 34.1374C13.9639 34.1374 14.6805 33.4208 14.6805 32.537C14.6805 31.6531 13.9639 30.9366 13.0801 30.9366C12.1962 30.9366 11.4797 31.6531 11.4797 32.537C11.4797 33.4208 12.1962 34.1374 13.0801 34.1374Z" stroke="#FF6B81" stroke-width="2" stroke-linecap="round" stroke-linejoin="round"/>
<path d="M18.9898 34.1374C19.8737 34.1374 20.5902 33.4208 20.5902 32.537C20.5902 31.6531 19.8737 30.9366 18.9898 30.9366C18.1059 30.9366 17.3894 31.6531 17.3894 32.537C17.3894 33.4208 18.1059 34.1374 18.9898 34.1374Z" stroke="#FF6B81" stroke-width="2" stroke-linecap="round" stroke-linejoin="round"/>
<path d="M24.8995 34.1374C25.7834 34.1374 26.4999 33.4208 26.4999 32.537C26.4999 31.6531 25.7834 30.9366 24.8995 30.9366C24.0157 30.9366 23.2991 31.6531 23.2991 32.537C23.2991 33.4208 24.0157 34.1374 24.8995 34.1374Z" stroke="#FF6B81" stroke-width="2" stroke-linecap="round" stroke-linejoin="round"/>
<path d="M27.1365 12.7658H4.12946V14.767H27.1365V12.7658Z" stroke="#FF6B81" stroke-width="2" stroke-linecap="round" stroke-linejoin="round"/>
<path d="M28.0859 27.87H3.39894C2.59218 27.87 1.93817 28.524 1.93817 29.3308V35.8531C1.93817 36.6599 2.59218 37.3139 3.39894 37.3139H28.0859C28.8927 37.3139 29.5467 36.6599 29.5467 35.8531V29.3308C29.5467 28.524 28.8927 27.87 28.0859 27.87Z" stroke="#FF6B81" stroke-width="2" stroke-linecap="round" stroke-linejoin="round"/>
<path d="M6.46656 34.8087C7.63636 34.8087 8.58468 33.8277 8.58468 32.6175C8.58468 31.4074 7.63636 30.4264 6.46656 30.4264C5.29676 30.4264 4.34845 31.4074 4.34845 32.6175C4.34845 33.8277 5.29676 34.8087 6.46656 34.8087Z" stroke="#FF6B81" stroke-width="2" stroke-linecap="round" stroke-linejoin="round"/>
<path d="M27.1365 24.2328H4.12946V26.234H27.1365V24.2328Z" stroke="#FF6B81" stroke-width="2" stroke-linecap="round" stroke-linejoin="round"/>
<path d="M29.5468 19.4853H36.4855" stroke="#FF6B81" stroke-width="2" stroke-linecap="round" stroke-linejoin="round"/>
<path d="M43.7893 26.7891C47.7424 26.7891 50.9471 23.5845 50.9471 19.6314C50.9471 15.6783 47.7424 12.4736 43.7893 12.4736C39.8362 12.4736 36.6315 15.6783 36.6315 19.6314C36.6315 23.5845 39.8362 26.7891 43.7893 26.7891Z" stroke="#FF6B81" stroke-width="2" stroke-linecap="round" stroke-linejoin="round"/>
<path d="M40.2104 20.7269L41.9634 22.4799L46.7839 17.6593" stroke="#FF6B81" stroke-width="2" stroke-linecap="round" stroke-linejoin="round"/>
</svg>
