<svg width="51" height="51" viewBox="0 0 51 51" fill="none" xmlns="http://www.w3.org/2000/svg">
<path d="M25.1904 12.6784C27.0788 12.6784 28.6095 11.1477 28.6095 9.25937C28.6095 7.37106 27.0788 5.84029 25.1904 5.84029C23.3021 5.84029 21.7714 7.37106 21.7714 9.25937C21.7714 11.1477 23.3021 12.6784 25.1904 12.6784Z" stroke="#FF6B81" stroke-width="2" stroke-miterlimit="10" stroke-linecap="square"/>
<path d="M25.1904 46.0145C27.0788 46.0145 28.6095 44.4837 28.6095 42.5954C28.6095 40.7071 27.0788 39.1763 25.1904 39.1763C23.3021 39.1763 21.7714 40.7071 21.7714 42.5954C21.7714 44.4837 23.3021 46.0145 25.1904 46.0145Z" stroke="#FF6B81" stroke-width="2" stroke-miterlimit="10" stroke-linecap="square"/>
<path d="M36.3025 17.8071C38.1908 17.8071 39.7216 16.2763 39.7216 14.388C39.7216 12.4997 38.1908 10.9689 36.3025 10.9689C34.4142 10.9689 32.8834 12.4997 32.8834 14.388C32.8834 16.2763 34.4142 17.8071 36.3025 17.8071Z" stroke="#FF6B81" stroke-width="2" stroke-miterlimit="10" stroke-linecap="square"/>
<path d="M14.0784 17.8071C15.9667 17.8071 17.4975 16.2763 17.4975 14.388C17.4975 12.4997 15.9667 10.9689 14.0784 10.9689C12.1901 10.9689 10.6593 12.4997 10.6593 14.388C10.6593 16.2763 12.1901 17.8071 14.0784 17.8071Z" stroke="#FF6B81" stroke-width="2" stroke-miterlimit="10" stroke-linecap="square"/>
<path d="M36.3025 40.0311C38.1908 40.0311 39.7216 38.5003 39.7216 36.612C39.7216 34.7237 38.1908 33.1929 36.3025 33.1929C34.4142 33.1929 32.8834 34.7237 32.8834 36.612C32.8834 38.5003 34.4142 40.0311 36.3025 40.0311Z" stroke="#FF6B81" stroke-width="2" stroke-miterlimit="10" stroke-linecap="square"/>
<path d="M14.0784 40.0311C15.9667 40.0311 17.4975 38.5003 17.4975 36.612C17.4975 34.7237 15.9667 33.1929 14.0784 33.1929C12.1901 33.1929 10.6593 34.7237 10.6593 36.612C10.6593 38.5003 12.1901 40.0311 14.0784 40.0311Z" stroke="#FF6B81" stroke-width="2" stroke-miterlimit="10" stroke-linecap="square"/>
<path d="M42.2859 28.9191C44.1742 28.9191 45.705 27.3883 45.705 25.5C45.705 23.6117 44.1742 22.0809 42.2859 22.0809C40.3976 22.0809 38.8668 23.6117 38.8668 25.5C38.8668 27.3883 40.3976 28.9191 42.2859 28.9191Z" stroke="#FF6B81" stroke-width="2" stroke-miterlimit="10" stroke-linecap="square"/>
<path d="M8.09498 28.9191C9.98329 28.9191 11.5141 27.3883 11.5141 25.5C11.5141 23.6117 9.98329 22.0809 8.09498 22.0809C6.20668 22.0809 4.6759 23.6117 4.6759 25.5C4.6759 27.3883 6.20668 28.9191 8.09498 28.9191Z" stroke="#FF6B81" stroke-width="2" stroke-miterlimit="10" stroke-linecap="square"/>
<path d="M25.1904 49.4336C38.4086 49.4336 49.124 38.7181 49.124 25.5C49.124 12.2819 38.4086 1.56643 25.1904 1.56643C11.9723 1.56643 1.25684 12.2819 1.25684 25.5C1.25684 38.7181 11.9723 49.4336 25.1904 49.4336Z" stroke="#FF6B81" stroke-width="2" stroke-miterlimit="10" stroke-linecap="square"/>
<path d="M29.4645 27.2095V23.7905C29.4645 22.3715 28.3191 21.2261 26.9001 21.2261H23.4811C22.0621 21.2261 20.9167 22.3715 20.9167 23.7905V27.2095C20.9167 28.6285 22.0621 29.7738 23.4811 29.7738H26.9001C28.3191 29.7738 29.4645 28.6285 29.4645 27.2095Z" stroke="#FF6B81" stroke-width="2" stroke-miterlimit="10" stroke-linecap="square"/>
<path d="M25.1904 29.7739V38.3216" stroke="#FF6B81" stroke-width="2" stroke-miterlimit="10" stroke-linecap="square"/>
<path d="M25.1904 12.6784V21.2261" stroke="#FF6B81" stroke-width="2" stroke-miterlimit="10" stroke-linecap="square"/>
<path d="M21.6433 29.0473L16.4805 34.2101" stroke="#FF6B81" stroke-width="2" stroke-miterlimit="10" stroke-linecap="square"/>
<path d="M33.9004 16.7899L28.7119 21.9784" stroke="#FF6B81" stroke-width="2" stroke-miterlimit="10" stroke-linecap="square"/>
<path d="M20.9165 25.5H11.514" stroke="#FF6B81" stroke-width="2" stroke-miterlimit="10" stroke-linecap="square"/>
<path d="M38.8666 25.5H29.4641" stroke="#FF6B81" stroke-width="2" stroke-miterlimit="10" stroke-linecap="square"/>
<path d="M21.6431 21.9441L16.6427 16.9523" stroke="#FF6B81" stroke-width="2" stroke-miterlimit="10" stroke-linecap="square"/>
<path d="M33.9518 34.2614L28.8745 29.1841" stroke="#FF6B81" stroke-width="2" stroke-miterlimit="10" stroke-linecap="square"/>
</svg>
