<svg width="49" height="49" viewBox="0 0 49 49" fill="none" xmlns="http://www.w3.org/2000/svg">
<path fill-rule="evenodd" clip-rule="evenodd" d="M29.6423 18.0923C29.6423 21.4919 26.8864 24.2469 23.4869 24.2469C20.0864 24.2469 17.3305 21.4919 17.3305 18.0923C17.3305 14.6928 20.0864 11.9369 23.4869 11.9369C26.8864 11.9369 29.6423 14.6928 29.6423 18.0923Z" stroke="#FF6B81" stroke-width="2" stroke-linecap="round" stroke-linejoin="round"/>
<path fill-rule="evenodd" clip-rule="evenodd" d="M33.746 39.1241C31.6939 41.1753 15.2796 41.1753 13.2275 39.1241C11.1754 37.0719 15.2796 29.8904 17.3308 27.8383C19.383 25.7871 27.5905 25.7871 29.6427 27.8383C31.6939 29.8904 35.7981 37.0719 33.746 39.1241Z" stroke="#FF6B81" stroke-width="2" stroke-linecap="round" stroke-linejoin="round"/>
<path d="M19.8967 1.16425L23.4874 4.75501" stroke="#FF6B81" stroke-width="2" stroke-linecap="round" stroke-linejoin="round"/>
<path d="M19.8967 8.34577L23.4874 4.75501" stroke="#FF6B81" stroke-width="2" stroke-linecap="round" stroke-linejoin="round"/>
<path d="M47.0571 35.7069L42.1521 37.0211" stroke="#FF6B81" stroke-width="2" stroke-linecap="round" stroke-linejoin="round"/>
<path d="M40.8372 32.1161L42.1523 37.0211" stroke="#FF6B81" stroke-width="2" stroke-linecap="round" stroke-linejoin="round"/>
<path d="M3.50861 41.9882L4.82282 37.0823" stroke="#FF6B81" stroke-width="2" stroke-linecap="round" stroke-linejoin="round"/>
<path d="M9.72839 38.3974L4.82251 37.0823" stroke="#FF6B81" stroke-width="2" stroke-linecap="round" stroke-linejoin="round"/>
<path d="M2.2436 29.8903C1.43927 25.1227 2.22834 20.0552 4.83702 15.539C8.82456 8.63124 16.0546 4.76489 23.4874 4.75501" stroke="#FF6B81" stroke-width="2" stroke-linecap="round" stroke-linejoin="round"/>
<path d="M37.1614 42.8998C30.4278 48.4619 20.6933 49.5715 12.6948 44.9537C9.29888 42.9932 6.64082 40.2445 4.81671 37.072" stroke="#FF6B81" stroke-width="2" stroke-linecap="round" stroke-linejoin="round"/>
<path d="M30.6699 5.98752C31.8862 6.41931 33.082 6.96869 34.24 7.63747C44.5293 13.5775 48.0473 26.7475 42.0984 37.0512" stroke="#FF6B81" stroke-width="2" stroke-linecap="round" stroke-linejoin="round"/>
</svg>
