<svg width="51" height="37" viewBox="0 0 51 37" fill="none" xmlns="http://www.w3.org/2000/svg">
<path fill-rule="evenodd" clip-rule="evenodd" d="M42.2575 31.1532L34.927 35.817L27.5966 31.1532C23.221 28.4946 20.5879 23.7818 20.5879 18.9589V2.76297L34.927 1.17548L49.2669 2.76297V18.9589C49.2669 23.7818 46.6338 28.4946 42.2575 31.1532Z" stroke="#FF6B81" stroke-width="2" stroke-linecap="round" stroke-linejoin="round"/>
<path d="M31.5685 5.22846C31.5685 5.22846 39.4872 2.71023 44.1879 9.14616" stroke="#FF6B81" stroke-width="2" stroke-linecap="round" stroke-linejoin="round"/>
<path d="M28.4164 9.47597C30.347 7.71321 34.1371 6.39567 38.2657 8.07113C41.3668 9.32958 43.6655 11.4066 44.5331 15.9112" stroke="#FF6B81" stroke-width="2" stroke-linecap="round" stroke-linejoin="round"/>
<path d="M26.6235 13.9917C29.8415 10.4662 33.0198 8.99419 37.0322 10.4648C41.4482 12.0839 44.6863 17.4037 40.6699 24.7926" stroke="#FF6B81" stroke-width="2" stroke-linecap="round" stroke-linejoin="round"/>
<path d="M26.6235 27.4683C26.6235 27.4683 31.0167 24.8379 32.4994 20.5852" stroke="#FF6B81" stroke-width="2" stroke-linecap="round" stroke-linejoin="round"/>
<path d="M25.9613 25.0522C30.4444 22.1982 30.7271 16.9945 33.5623 17.8897C36.3982 18.7841 34.8591 25.1643 28.5353 28.5777" stroke="#FF6B81" stroke-width="2" stroke-linecap="round" stroke-linejoin="round"/>
<path d="M25.0674 21.9681C29.6002 18.554 29.8037 13.8788 34.7253 15.7726C39.747 17.7045 37.267 25.8858 30.9433 29.2992" stroke="#FF6B81" stroke-width="2" stroke-linecap="round" stroke-linejoin="round"/>
<path d="M25.6162 18.4992C28.7502 14.4425 31.0502 11.5046 35.5334 13.0598C40.2978 14.7125 42.9175 20.4023 35.8785 27.9006" stroke="#FF6B81" stroke-width="2" stroke-linecap="round" stroke-linejoin="round"/>
<path d="M19.943 18.4959H5.85902" stroke="#FF6B81" stroke-width="2" stroke-linecap="round" stroke-linejoin="round"/>
<path d="M5.85923 29.9119H12.9009V7.13561H5.85923" stroke="#FF6B81" stroke-width="2" stroke-linecap="round" stroke-linejoin="round"/>
<path fill-rule="evenodd" clip-rule="evenodd" d="M1.46003 7.13561C1.46003 8.24564 2.36055 9.14616 3.47125 9.14616C4.58129 9.14616 5.48181 8.24564 5.48181 7.13561C5.48181 6.02557 4.58129 5.12505 3.47125 5.12505C2.36055 5.12505 1.46003 6.02557 1.46003 7.13561Z" stroke="#FF6B81" stroke-width="2" stroke-linecap="round" stroke-linejoin="round"/>
<path fill-rule="evenodd" clip-rule="evenodd" d="M1.46003 18.5516C1.46003 19.6616 2.36055 20.5622 3.47125 20.5622C4.58129 20.5622 5.48181 19.6616 5.48181 18.5516C5.48181 17.4416 4.58129 16.541 3.47125 16.541C2.36055 16.541 1.46003 17.4416 1.46003 18.5516Z" stroke="#FF6B81" stroke-width="2" stroke-linecap="round" stroke-linejoin="round"/>
<path fill-rule="evenodd" clip-rule="evenodd" d="M1.46003 29.9119C1.46003 31.0219 2.36055 31.9224 3.47125 31.9224C4.58129 31.9224 5.48181 31.0219 5.48181 29.9119C5.48181 28.8011 4.58129 27.9006 3.47125 27.9006C2.36055 27.9006 1.46003 28.8011 1.46003 29.9119Z" stroke="#FF6B81" stroke-width="2" stroke-linecap="round" stroke-linejoin="round"/>
</svg>
