<svg width="51" height="42" viewBox="0 0 51 42" fill="none" xmlns="http://www.w3.org/2000/svg">
<path d="M16.8208 25.9027C17.6212 25.3637 18.17 24.4694 18.17 23.4197C18.17 21.6846 16.6904 20.3833 15.0006 20.3833C13.3107 20.3833 11.83 21.6841 11.83 23.4197C11.83 24.4699 12.3792 25.3644 13.1807 25.9034L12.7941 28.4676C12.7506 28.7556 12.8349 29.0482 13.0249 29.2689C13.2149 29.4897 13.4916 29.6167 13.7829 29.6167H16.2183C16.5096 29.6167 16.7863 29.4897 16.9763 29.269C17.1662 29.0483 17.2506 28.7557 17.2072 28.4677L16.8208 25.9027Z" stroke="#FF6B81" stroke-width="2" stroke-linecap="round" stroke-linejoin="round"/>
<path d="M5.23157 13.7332V9.68326C5.23157 4.9069 9.13999 1 13.9164 1H16.0162C20.7926 1 24.701 4.9069 24.701 9.68326V13.7332" stroke="#FF6B81" stroke-width="2" stroke-linecap="round" stroke-linejoin="round"/>
<path fill-rule="evenodd" clip-rule="evenodd" d="M3.03489 13.733H26.8968C28.0171 13.733 28.9325 14.6476 28.9325 15.7671V35.4301C28.9325 36.646 27.9368 37.6408 26.721 37.6408H3.21001C1.99565 37.6408 1 36.646 1 35.4301V15.7671C1 14.6476 1.91536 13.733 3.03489 13.733Z" stroke="#FF6B81" stroke-width="2" stroke-linecap="round" stroke-linejoin="round"/>
<path d="M28.9324 25.3112H44.9706" stroke="#FF6B81" stroke-width="2" stroke-linecap="round" stroke-linejoin="round"/>
<path d="M28.9324 25.2478H44.9706" stroke="#FF6B81" stroke-width="2" stroke-linecap="round" stroke-linejoin="round"/>
<path d="M44.9701 38.2476H36.9514V12.311H44.9701" stroke="#FF6B81" stroke-width="2" stroke-linecap="round" stroke-linejoin="round"/>
<path fill-rule="evenodd" clip-rule="evenodd" d="M49.9801 12.3112C49.9801 13.5753 48.9546 14.6007 47.6898 14.6007C46.4257 14.6007 45.4003 13.5753 45.4003 12.3112C45.4003 11.0471 46.4257 10.0217 47.6898 10.0217C48.9546 10.0217 49.9801 11.0471 49.9801 12.3112Z" stroke="#FF6B81" stroke-width="2" stroke-linecap="round" stroke-linejoin="round"/>
<path fill-rule="evenodd" clip-rule="evenodd" d="M49.9801 25.3114C49.9801 26.5755 48.9546 27.6009 47.6898 27.6009C46.4257 27.6009 45.4003 26.5755 45.4003 25.3114C45.4003 24.0473 46.4257 23.0219 47.6898 23.0219C48.9546 23.0219 49.9801 24.0473 49.9801 25.3114Z" stroke="#FF6B81" stroke-width="2" stroke-linecap="round" stroke-linejoin="round"/>
<path fill-rule="evenodd" clip-rule="evenodd" d="M49.9801 38.2478C49.9801 39.5119 48.9546 40.5373 47.6898 40.5373C46.4257 40.5373 45.4003 39.5119 45.4003 38.2478C45.4003 36.983 46.4257 35.9575 47.6898 35.9575C48.9546 35.9575 49.9801 36.983 49.9801 38.2478Z" stroke="#FF6B81" stroke-width="2" stroke-linecap="round" stroke-linejoin="round"/>
</svg>
